<!--?xml version="1.0" standalone="no"?-->
              <svg id="sw-js-blob-svg" viewBox="0 0 100 100" xmlns="http://www.w3.org/2000/svg" version="1.1">
                    <defs> 
                        <linearGradient id="sw-gradient" x1="0" x2="1" y1="1" y2="0">
                            <stop id="stop1" stop-color="rgba(255, 255, 255, 1)" offset="0%"></stop>
                            <stop id="stop2" stop-color="rgba(182.694, 182.694, 182.694, 1)" offset="100%"></stop>
                        </linearGradient>
                    </defs>
                <path fill="url(#sw-gradient)" d="M20.4,-22.8C27.7,-18.2,35.8,-13,39.6,-5C43.4,3,43,13.8,38.3,22.2C33.6,30.6,24.6,36.7,15.1,39.1C5.7,41.5,-4.3,40.3,-13.6,37C-22.9,33.8,-31.7,28.6,-35.4,21C-39.2,13.4,-37.9,3.5,-36,-6.2C-34.1,-15.9,-31.7,-25.3,-25.6,-30.1C-19.5,-34.9,-9.7,-35,-1.6,-33.1C6.6,-31.2,13.1,-27.3,20.4,-22.8Z" width="100%" height="100%" transform="translate(50 50)" stroke-width="0" style="transition: all 0.3s ease 0s;" stroke="url(#sw-gradient)"></path>
              </svg>